<svg width="98" height="109" viewBox="0 0 98 109" fill="none" xmlns="http://www.w3.org/2000/svg">
<path d="M45.7911 11.2172C46.9374 10.5554 47.5105 10.2245 48.119 10.0918C48.6805 9.96939 49.2618 9.96939 49.8233 10.0918C50.4318 10.2245 51.0049 10.5554 52.1511 11.2172L84.7623 30.0452C85.9085 30.707 86.4817 31.0379 86.9008 31.4985C87.2876 31.9236 87.5782 32.427 87.7529 32.9745C87.9423 33.5678 87.9423 34.2296 87.9423 35.5531V73.2093C87.9423 74.5328 87.9423 75.1946 87.7529 75.7879C87.5782 76.3354 87.2876 76.8388 86.9008 77.2638C86.4817 77.7245 85.9085 78.0554 84.7623 78.7172L52.1511 97.5452C51.0049 98.207 50.4318 98.5379 49.8233 98.6706C49.2618 98.793 48.6805 98.793 48.119 98.6706C47.5105 98.5379 46.9374 98.207 45.7911 97.5452L13.18 78.7172C12.0338 78.0554 11.4606 77.7245 11.0415 77.2638C10.6547 76.8388 10.3641 76.3354 10.1894 75.7879C10 75.1946 10 74.5328 10 73.2093V35.5531C10 34.2296 10 33.5678 10.1894 32.9745C10.3641 32.427 10.6547 31.9236 11.0415 31.4985C11.4606 31.0379 12.0338 30.707 13.18 30.0452L45.7911 11.2172Z" fill="url(#paint0_linear_2_3)"/>
<path d="M19.9961 37L49.4961 89.5L78.9961 37H58.4961L49.4961 58.3L40.4961 37H19.9961Z" fill="white"/>
<defs>
<linearGradient id="paint0_linear_2_3" x1="48.9711" y1="10" x2="48.9711" y2="98.7624" gradientUnits="userSpaceOnUse">
<stop stop-color="#FF53F8"/>
<stop offset="1" stop-color="#5B58F8"/>
</linearGradient>
</defs>
</svg>
